<svg xmlns="http://www.w3.org/2000/svg" viewBox="0 0 207.78 414.02"><defs><style>.cls-1{fill:#21145f;}</style></defs><g id="Layer_2" data-name="Layer 2"><g id="Layer_1-2" data-name="Layer 1"><path class="cls-1" d="M185,268.24a3.24,3.24,0,1,0-3.24,3.24A3.24,3.24,0,0,0,185,268.24Z"/><path class="cls-1" d="M181.71,260.63a7.61,7.61,0,1,1-7.61,7.61A7.61,7.61,0,0,1,181.71,260.63Zm0,14.3a6.7,6.7,0,1,0-6.7-6.69A6.7,6.7,0,0,0,181.71,274.93Z"/><path class="cls-1" d="M99.21,243.59A3.24,3.24,0,1,0,96,246.83,3.24,3.24,0,0,0,99.21,243.59Z"/><path class="cls-1" d="M96,236a7.61,7.61,0,1,1-7.61,7.6A7.62,7.62,0,0,1,96,236Zm0,14.3a6.7,6.7,0,1,0-6.69-6.7A6.7,6.7,0,0,0,96,250.29Z"/><path class="cls-1" d="M183.25,49.9A3.24,3.24,0,1,0,180,53.14,3.24,3.24,0,0,0,183.25,49.9Z"/><path class="cls-1" d="M180,42.29a7.61,7.61,0,1,1-7.61,7.61A7.61,7.61,0,0,1,180,42.29Zm0,14.3a6.69,6.69,0,1,0-6.7-6.69A6.7,6.7,0,0,0,180,56.59Z"/><path class="cls-1" d="M173.34,113.35a3.24,3.24,0,1,0-3.24,3.24A3.24,3.24,0,0,0,173.34,113.35Z"/><path class="cls-1" d="M170.1,105.74a7.61,7.61,0,1,1-7.61,7.61A7.62,7.62,0,0,1,170.1,105.74Zm0,14.3a6.69,6.69,0,1,0-6.69-6.69A6.7,6.7,0,0,0,170.1,120Z"/><path class="cls-1" d="M90.49,95.53a3.24,3.24,0,1,0-3.24,3.24A3.25,3.25,0,0,0,90.49,95.53Z"/><path class="cls-1" d="M87.25,87.93a7.61,7.61,0,1,1-7.6,7.6A7.61,7.61,0,0,1,87.25,87.93Zm0,14.3a6.7,6.7,0,1,0-6.69-6.7A6.71,6.71,0,0,0,87.25,102.23Z"/><path class="cls-1" d="M133.11,51.65a3.24,3.24,0,1,0-3.24,3.24A3.24,3.24,0,0,0,133.11,51.65Z"/><path class="cls-1" d="M129.87,44.05a7.61,7.61,0,1,1-7.61,7.6A7.61,7.61,0,0,1,129.87,44.05Zm0,14.3a6.7,6.7,0,1,0-6.69-6.7A6.7,6.7,0,0,0,129.87,58.35Z"/><path class="cls-1" d="M97.19,199.8A3.24,3.24,0,1,0,94,203,3.24,3.24,0,0,0,97.19,199.8Z"/><path class="cls-1" d="M94,192.19a7.61,7.61,0,1,1-7.61,7.61A7.61,7.61,0,0,1,94,192.19Zm0,14.3a6.69,6.69,0,1,0-6.7-6.69A6.7,6.7,0,0,0,94,206.49Z"/><path class="cls-1" d="M10.85,52.4a3.24,3.24,0,1,0-3.24,3.24A3.24,3.24,0,0,0,10.85,52.4Z"/><path class="cls-1" d="M7.61,44.79A7.61,7.61,0,1,1,0,52.4,7.62,7.62,0,0,1,7.61,44.79Zm0,14.3A6.69,6.69,0,1,0,.92,52.4,6.7,6.7,0,0,0,7.61,59.09Z"/><path class="cls-1" d="M50.67,109.81a3.24,3.24,0,1,0-3.24,3.24A3.25,3.25,0,0,0,50.67,109.81Z"/><path class="cls-1" d="M47.43,102.21a7.61,7.61,0,1,1-7.61,7.6A7.61,7.61,0,0,1,47.43,102.21Zm0,14.3a6.7,6.7,0,1,0-6.69-6.7A6.7,6.7,0,0,0,47.43,116.51Z"/><path class="cls-1" d="M42.6,271.29a5.46,5.46,0,1,1-5.46,5.46A5.47,5.47,0,0,1,42.6,271.29Zm0,8.52a3.06,3.06,0,1,0-3.06-3.06A3.06,3.06,0,0,0,42.6,279.81Z"/><path class="cls-1" d="M26.37,113.35a5.46,5.46,0,1,1-5.46,5.46A5.47,5.47,0,0,1,26.37,113.35Zm0,8.52a3.06,3.06,0,1,0-3.05-3.06A3.06,3.06,0,0,0,26.37,121.87Z"/><path class="cls-1" d="M202.32,182.84a5.46,5.46,0,1,1-5.47,5.46A5.47,5.47,0,0,1,202.32,182.84Zm0,8.51a3.06,3.06,0,1,0-3.06-3A3.06,3.06,0,0,0,202.32,191.35Z"/><path class="cls-1" d="M202.32,57.14a5.46,5.46,0,1,1-5.47,5.46A5.47,5.47,0,0,1,202.32,57.14Zm0,8.52a3.06,3.06,0,1,0-3.06-3.06A3.06,3.06,0,0,0,202.32,65.66Z"/><circle class="cls-1" cx="7.85" cy="72.6" r="4.26"/><path class="cls-1" d="M32.78,54.16a4.26,4.26,0,1,0-4.26,4.26A4.26,4.26,0,0,0,32.78,54.16Z"/><path class="cls-1" d="M51.69,141.46a4.26,4.26,0,1,0-4.26,4.26A4.25,4.25,0,0,0,51.69,141.46Z"/><circle class="cls-1" cx="40.95" cy="171.25" r="4.26"/><path class="cls-1" d="M35.74,228.57a4.26,4.26,0,1,0-4.26,4.25A4.25,4.25,0,0,0,35.74,228.57Z"/><circle class="cls-1" cx="81.62" cy="272.49" r="4.26"/><path class="cls-1" d="M165.91,256.34a4.26,4.26,0,1,0-4.26,4.26A4.26,4.26,0,0,0,165.91,256.34Z"/><path class="cls-1" d="M171.9,282.38a4.26,4.26,0,1,0-4.26,4.26A4.25,4.25,0,0,0,171.9,282.38Z"/><path class="cls-1" d="M194.47,99.79a4.26,4.26,0,1,0-4.25,4.26A4.25,4.25,0,0,0,194.47,99.79Z"/><path class="cls-1" d="M155.36,307.68a3.24,3.24,0,1,0-3.24,3.24A3.24,3.24,0,0,0,155.36,307.68Z"/><path class="cls-1" d="M152.12,300.07a7.61,7.61,0,1,1-7.6,7.61A7.61,7.61,0,0,1,152.12,300.07Zm0,14.3a6.69,6.69,0,1,0-6.69-6.69A6.7,6.7,0,0,0,152.12,314.37Z"/><path class="cls-1" d="M61.43,304.44a3.24,3.24,0,1,0-3.24,3.24A3.24,3.24,0,0,0,61.43,304.44Z"/><path class="cls-1" d="M58.19,296.83a7.61,7.61,0,1,1-7.61,7.61A7.62,7.62,0,0,1,58.19,296.83Zm0,14.3a6.69,6.69,0,1,0-6.69-6.69A6.7,6.7,0,0,0,58.19,311.13Z"/><path class="cls-1" d="M140.85,383.36a3.24,3.24,0,1,0-3.24,3.24A3.25,3.25,0,0,0,140.85,383.36Z"/><path class="cls-1" d="M137.61,375.76a7.61,7.61,0,1,1-7.61,7.6A7.61,7.61,0,0,1,137.61,375.76Zm0,14.3a6.7,6.7,0,1,0-6.7-6.7A6.7,6.7,0,0,0,137.61,390.06Z"/><path class="cls-1" d="M110.31,328.68a5.46,5.46,0,1,1-5.46,5.46A5.47,5.47,0,0,1,110.31,328.68Zm0,8.52a3.06,3.06,0,1,0-3-3.06A3.06,3.06,0,0,0,110.31,337.2Z"/><circle class="cls-1" cx="137.61" cy="409.77" r="4.26"/><path class="cls-1" d="M39.33,310.43a4.26,4.26,0,1,0-4.26,4.25A4.26,4.26,0,0,0,39.33,310.43Z"/><path class="cls-1" d="M51.69,341.14a4.26,4.26,0,1,0-4.26,4.26A4.26,4.26,0,0,0,51.69,341.14Z"/><circle class="cls-1" cx="148.78" cy="339.6" r="4.26"/><polygon class="cls-1" points="168.98 0 170.79 0 170.79 156.08 200.31 185.6 199.03 186.88 168.98 156.83 168.98 0"/><polygon class="cls-1" points="157.55 0 159.35 0 159.35 160.8 191.47 192.91 191.47 259.63 167.53 283.57 166.26 282.29 189.67 258.88 189.67 193.66 157.55 161.54 157.55 0"/><polygon class="cls-1" points="147.32 0 149.13 0 149.13 225.28 162.56 238.71 162.56 256.34 160.75 256.34 160.75 239.46 147.32 226.03 147.32 0"/><polygon class="cls-1" points="139.07 0 140.88 0 140.88 295.08 164.28 318.48 164.28 337.67 138.51 363.44 138.51 406.18 136.7 406.18 136.7 362.69 162.48 336.92 162.48 319.23 139.07 295.83 139.07 0"/><polygon class="cls-1" points="129.27 0 131.07 0 131.07 304.01 149.68 322.62 149.68 339.6 147.88 339.6 147.88 323.37 129.27 304.76 129.27 0"/><polygon class="cls-1" points="109.41 0 111.22 0 111.22 184.11 82.53 212.8 82.53 272.49 80.72 272.49 80.72 212.05 109.41 183.36 109.41 0"/><polygon class="cls-1" points="98.58 0 100.38 0 100.38 177.19 69.09 208.48 69.09 293.93 48.33 314.69 48.33 341.14 46.53 341.14 46.53 313.94 67.29 293.18 67.29 207.73 98.58 176.44 98.58 0"/><polygon class="cls-1" points="86.54 0 88.35 0 88.35 170.94 55.85 203.44 55.85 290.92 35.71 311.07 34.43 309.79 54.05 290.17 54.05 202.69 86.54 170.2 86.54 0"/><polygon class="cls-1" points="76.92 0 78.72 0 78.72 164.52 43.5 199.74 43.5 272.49 41.7 272.49 41.7 198.99 76.92 163.77 76.92 0"/><polygon class="cls-1" points="66.69 0 68.49 0 68.49 160.34 68.23 160.61 32.39 196.45 32.39 228.57 30.58 228.57 30.58 195.7 30.85 195.43 66.69 159.59 66.69 0"/><polygon class="cls-1" points="56.38 0 58.19 0 58.19 155.59 41.59 172.19 40.31 170.91 56.38 154.84 56.38 0"/><rect class="cls-1" x="46.53" width="1.81" height="141.46"/><polygon class="cls-1" points="37.2 0 39.01 0 39.01 82.11 27.27 93.85 27.27 114.28 25.47 114.28 25.47 93.1 37.2 81.37 37.2 0"/><rect class="cls-1" x="27.62" width="1.81" height="51.65"/><polygon class="cls-1" points="178.61 0 180.42 0 180.42 68.13 191.12 78.83 191.12 99.79 189.31 99.79 189.31 79.58 178.61 68.88 178.61 0"/><polygon class="cls-1" points="189.31 0 191.12 0 191.12 21.8 203.22 33.89 203.22 57.14 201.41 57.14 201.41 34.64 189.31 22.54 189.31 0"/><polygon class="cls-1" points="17.73 0 19.54 0 19.54 26.2 8.75 36.99 8.75 70.73 6.94 70.73 6.94 36.24 17.73 25.45 17.73 0"/><polygon class="cls-1" points="117.32 0 119.13 0 119.13 205.77 96.86 228.04 96.86 257.08 111.56 271.77 111.56 330.26 109.75 330.26 109.75 272.52 95.06 257.82 95.06 227.29 117.32 205.03 117.32 0"/></g></g></svg>