<svg height='100px' width='100px'  fill="#fff" xmlns="http://www.w3.org/2000/svg" xmlns:xlink="http://www.w3.org/1999/xlink" xml:space="preserve" version="1.1" style="shape-rendering:geometricPrecision;text-rendering:geometricPrecision;image-rendering:optimizeQuality;" viewBox="0 0 424.98 424.97" x="0px" y="0px" fill-rule="evenodd" clip-rule="evenodd"><defs><style type="text/css">
   
    .fil0 {fill:#fff}
    .fil1 {fill:#fff;fill-rule:nonzero}
   
  </style></defs><g><path class="fil0" d="M179.52 85.33l65.93 0c1.77,0 3.21,1.44 3.21,3.21l0 90.58 37.43 0c2.65,0 4.16,3.03 2.55,5.15l-73.6 97.06c-1.28,1.69 -3.83,1.69 -5.11,0l-73.61 -97.06c-1.6,-2.12 -0.1,-5.15 2.56,-5.15l37.43 0 0 -90.58c0,-1.77 1.44,-3.21 3.21,-3.21z"></path><path class="fil0" d="M132.89 308.82l159.19 0c1.76,0 3.2,1.44 3.2,3.21l0 24.4c0,1.77 -1.44,3.21 -3.2,3.21l-159.19 0c-1.77,0 -3.21,-1.44 -3.21,-3.21l0 -24.4c0,-1.77 1.44,-3.21 3.21,-3.21z"></path><path class="fil1" d="M212.49 0c117.35,0 212.5,95.13 212.5,212.49 0,117.35 -95.14,212.49 -212.5,212.49 -117.35,0 -212.49,-95.13 -212.49,-212.49 0,-117.35 95.13,-212.49 212.49,-212.49zm0 27.3c-102.27,0 -185.17,82.91 -185.17,185.18 0,102.27 82.9,185.18 185.17,185.18 102.28,0 185.18,-82.91 185.18,-185.18 0,-102.27 -82.9,-185.18 -185.18,-185.18z"></path></g></svg>