<svg xmlns="http://www.w3.org/2000/svg" viewBox="0 0 339.6 30.77"><defs><style>.cls-1{fill:#efefef;}</style></defs><g id="Layer_2" data-name="Layer 2"><g id="Layer_1-2" data-name="Layer 1"><g id="Layer_2-2" data-name="Layer 2"><g id="Layer_1-2-2" data-name="Layer 1-2"><path class="cls-1" d="M243.6,19.92a3.24,3.24,0,1,0,3.24,3.24h0A3.24,3.24,0,0,0,243.6,19.92Z"/><path class="cls-1" d="M236,23.16a7.61,7.61,0,1,1,7.62,7.61A7.61,7.61,0,0,1,236,23.16Zm14.3,0a6.69,6.69,0,1,0-6.69,6.69h0A6.7,6.7,0,0,0,250.28,23.16Z"/><path class="cls-1" d="M328.68,8.81a5.46,5.46,0,1,1,5.46,5.46A5.45,5.45,0,0,1,328.68,8.81Zm8.51,0a3.06,3.06,0,1,0-3.06,3.06h0A3.06,3.06,0,0,0,337.19,8.81Z"/><polygon class="cls-1" points="0 1.8 0 0 205.77 0 228.03 22.27 257.07 22.27 271.77 7.57 330.26 7.57 330.26 9.37 272.52 9.37 257.82 24.07 227.29 24.07 205.02 1.8 0 1.8"/></g></g></g></g></svg>