<svg xmlns="http://www.w3.org/2000/svg" viewBox="0 0 301.9 33.64"><defs><style>.cls-1{fill:#efefef;}</style></defs><g id="Layer_2" data-name="Layer 2"><g id="Layer_1-2" data-name="Layer 1"><polygon class="cls-1" points="297.39 6.71 297.39 8.51 266.93 8.51 241.8 33.64 0 33.64 0 31.83 241.05 31.83 266.18 6.71 297.39 6.71"/><path class="cls-1" d="M282.51,10.85a3.24,3.24,0,1,0-3.24-3.24A3.24,3.24,0,0,0,282.51,10.85Z"/><path class="cls-1" d="M290.12,7.61A7.61,7.61,0,1,1,282.51,0,7.62,7.62,0,0,1,290.12,7.61Zm-14.3,0A6.69,6.69,0,1,0,282.51.92,6.7,6.7,0,0,0,275.82,7.61Z"/><path class="cls-1" d="M297.64,11.87a4.26,4.26,0,1,0-4.26-4.26A4.26,4.26,0,0,0,297.64,11.87Z"/></g></g></svg>