<svg xmlns="http://www.w3.org/2000/svg" viewBox="0 0 294.38 27.78"><defs><style>.cls-1{fill:#efefef;}</style></defs><g id="Layer_2" data-name="Layer 2"><g id="Layer_1-2" data-name="Layer 1"><polygon class="cls-1" points="294.38 25.98 294.38 27.78 251.61 27.78 241.05 17.23 190.88 17.23 175.46 1.8 0 1.8 0 0 176.21 0 191.63 15.42 241.8 15.42 252.36 25.98 294.38 25.98"/><path class="cls-1" d="M214.61,19.39a3.24,3.24,0,1,0-3.24-3.24A3.24,3.24,0,0,0,214.61,19.39Z"/><path class="cls-1" d="M222.22,16.15a7.61,7.61,0,1,1-7.61-7.61A7.62,7.62,0,0,1,222.22,16.15Zm-14.3,0a6.69,6.69,0,1,0,6.69-6.69A6.7,6.7,0,0,0,207.92,16.15Z"/></g></g></svg>