<svg xmlns="http://www.w3.org/2000/svg" viewBox="0 0 30.77 339.6"><defs><style>.cls-1{fill:#21145f;}</style></defs><g id="Layer_2" data-name="Layer 2"><g id="Layer_1-2" data-name="Layer 1"><path class="cls-1" d="M19.92,96a3.24,3.24,0,1,0,3.24-3.24A3.24,3.24,0,0,0,19.92,96Z"/><path class="cls-1" d="M23.16,103.62A7.61,7.61,0,1,1,30.77,96,7.61,7.61,0,0,1,23.16,103.62Zm0-14.3A6.69,6.69,0,1,0,29.85,96,6.7,6.7,0,0,0,23.16,89.32Z"/><path class="cls-1" d="M8.81,10.92a5.46,5.46,0,1,1,5.46-5.46A5.47,5.47,0,0,1,8.81,10.92Zm0-8.51a3.06,3.06,0,1,0,3.06,3.05A3.06,3.06,0,0,0,8.81,2.41Z"/><polygon class="cls-1" points="1.8 339.6 0 339.6 0 133.83 22.27 111.57 22.27 82.53 7.57 67.83 7.57 9.34 9.37 9.34 9.37 67.08 24.07 81.78 24.07 112.31 1.8 134.58 1.8 339.6"/></g></g></svg>