<svg xmlns="http://www.w3.org/2000/svg" viewBox="0 0 414.02 34.28"><defs><style>.cls-1{fill:#efefef;}</style></defs><g id="Layer_2" data-name="Layer 2"><g id="Layer_1-2" data-name="Layer 1"><path class="cls-1" d="M307.68,8.92a3.24,3.24,0,1,0,3.24,3.24A3.24,3.24,0,0,0,307.68,8.92Z"/><path class="cls-1" d="M300.07,12.16a7.61,7.61,0,1,1,7.61,7.61A7.62,7.62,0,0,1,300.07,12.16Zm14.3,0a6.69,6.69,0,1,0-6.69,6.69A6.7,6.7,0,0,0,314.37,12.16Z"/><path class="cls-1" d="M383.36,23.44a3.24,3.24,0,1,0,3.24,3.24A3.25,3.25,0,0,0,383.36,23.44Z"/><path class="cls-1" d="M375.76,26.68a7.61,7.61,0,1,1,7.6,7.6A7.61,7.61,0,0,1,375.76,26.68Zm14.3,0a6.7,6.7,0,1,0-6.7,6.69A6.71,6.71,0,0,0,390.06,26.68Z"/><circle class="cls-1" cx="409.77" cy="26.68" r="4.26"/><polygon class="cls-1" points="0 25.21 0 23.4 295.08 23.4 318.48 0 337.67 0 363.44 25.77 406.18 25.77 406.18 27.58 362.69 27.58 336.92 1.8 319.23 1.8 295.83 25.21 0 25.21"/></g></g></svg>