<svg xmlns="http://www.w3.org/2000/svg" viewBox="0 0 286.64 33.92"><defs><style>.cls-1{fill:#efefef;}</style></defs><g id="Layer_2" data-name="Layer 2"><g id="Layer_1-2" data-name="Layer 1"><path class="cls-1" d="M268.24,6.53a3.24,3.24,0,1,0,3.24,3.24A3.24,3.24,0,0,0,268.24,6.53Z"/><path class="cls-1" d="M260.63,9.77a7.61,7.61,0,1,1,7.61,7.6A7.61,7.61,0,0,1,260.63,9.77Zm14.3,0a6.7,6.7,0,1,0-6.69,6.69A6.71,6.71,0,0,0,274.93,9.77Z"/><path class="cls-1" d="M282.38,19.58a4.26,4.26,0,1,0,4.26,4.25A4.25,4.25,0,0,0,282.38,19.58Z"/><polygon class="cls-1" points="0 33.92 0 32.12 160.8 32.12 192.91 0 259.63 0 283.57 23.94 282.29 25.22 258.88 1.8 193.66 1.8 161.54 33.92 0 33.92"/></g></g></svg>