<svg height='100px' width='100px'  fill="#21145f" xmlns="http://www.w3.org/2000/svg" xmlns:xlink="http://www.w3.org/1999/xlink" version="1.1" x="0px" y="0px" viewBox="0 0 100 100" enable-background="new 0 0 100 100" xml:space="preserve"><path d="M49.999,5C26.837,5,7.995,23.844,7.995,47.005c0,10.428,3.859,20.416,10.871,28.157l-4.484,14.896L12.969,95l16.679-11.272  c6.209,3.458,13.241,5.281,20.352,5.281c23.165,0,42.006-18.843,42.006-42.002C92.003,23.844,73.159,5,49.999,5z M49.999,85.264  c-6.96,0-13.779-1.896-19.722-5.485l-0.796-0.488l-9.995,6.798l2.634-8.748l0.928-3.199l-0.566-0.577  c-6.93-7.175-10.744-16.604-10.744-26.555c0-21.097,17.165-38.259,38.258-38.259c21.098,0,38.262,17.162,38.262,38.259  C88.257,68.102,71.097,85.264,49.999,85.264z"></path><circle cx="49.864" cy="63.507" r="3.035"></circle><path d="M50.455,24.503c-4.009,0-7.123,1.104-9.329,3.315c-1.977,1.978-2.898,5.598-3.221,8.401  c-0.009,0.064-0.004,0.133,0.004,0.197c-0.008,0.076-0.013,0.154-0.013,0.234c0,1.345,1.093,2.442,2.441,2.442  c1.276,0,2.327-0.99,2.43-2.239c0.005-0.067,0.025-0.312,0.031-0.357c0.244-2.308,0.891-4.082,1.934-5.323  c1.239-1.482,3.075-2.225,5.503-2.225c1.973,0,3.56,0.567,4.765,1.699c1.207,1.133,1.809,2.627,1.809,4.484  c0,1.308-0.236,2.487-0.719,3.536s-1.279,2.124-2.403,3.229l-2.153,2.152c-1.564,1.547-2.684,3.106-3.369,4.681  c-0.682,1.575-1.02,3.372-1.02,5.396c0,0.131,0.008,0.326,0.028,0.593c0.011,0.12,0.019,0.225,0.026,0.32  c0,0.012-0.004,0.024-0.004,0.038c0,1.363,1.106,2.473,2.476,2.473c1.322,0,2.397-1.04,2.463-2.346c0-0.002,0.005-0.002,0.005-0.004  c0-0.011,0-0.025,0-0.035c0-0.03,0.004-0.06,0.004-0.088c0-0.089-0.004-0.175-0.013-0.261c-0.008-0.297-0.012-0.676-0.012-0.911  c0-1.53,0.233-2.816,0.702-3.864c0.472-1.05,1.424-2.257,2.856-3.618l2.32-2.209c1.379-1.308,2.409-2.709,3.091-4.211  c0.684-1.5,1.022-3.123,1.022-4.872c-0.004-3.199-1.063-5.77-3.178-7.714C56.814,25.476,53.99,24.503,50.455,24.503z"></path></svg>