<svg xmlns="http://www.w3.org/2000/svg" viewBox="0 0 76.41 71.02"><defs><style>.cls-1{fill:#f7901e;}</style></defs><g id="Layer_2" data-name="Layer 2"><g id="Layer_1-2" data-name="Layer 1"><g id="Layer_2-2" data-name="Layer 2"><g id="Layer_1-2-2" data-name="Layer 1-2"><path class="cls-1" d="M0,50.2,10.68,35.5,0,20.8l17.28,5.61L28,11.71V29.88L45.25,35.5,28,41.11V59.29L17.28,44.59ZM24,23.89l-5.22,7.18-8.43-2.74,5.21,7.17-5.21,7.17,8.43-2.74L24,47.11V38.24l8.42-2.74L24,32.76Z"/><path class="cls-1" d="M46,53.5a2.46,2.46,0,0,1,.27-1.12c8.3-16.62.08-33.6,0-33.77a2.5,2.5,0,0,1,4.48-2.23c.39.78,9.45,19.34,0,38.24A2.5,2.5,0,0,1,46,53.5Z"/><path class="cls-1" d="M55.36,59.5a2.46,2.46,0,0,1,.27-1.12c11.27-22.55.11-45.54,0-45.77A2.5,2.5,0,0,1,60,10.19l.1.19c.51,1,12.42,25.41,0,50.24a2.5,2.5,0,0,1-4.74-1.12Z"/><path class="cls-1" d="M64,68.5a2.46,2.46,0,0,1,.27-1.12c15.72-31.44.12-63.45,0-63.76a2.5,2.5,0,0,1,4.48-2.24h0c.65,1.39,16.86,34.51,0,68.24A2.5,2.5,0,0,1,64,68.5Z"/></g></g></g></g></svg>