<svg xmlns="http://www.w3.org/2000/svg" viewBox="0 0 71 76.42"><defs><style>.cls-1{fill:#f7901e;}</style></defs><g id="Layer_2" data-name="Layer 2"><g id="Layer_1-2" data-name="Layer 1"><path class="cls-1" d="M50.2,76.42,35.5,65.74,20.8,76.42l5.61-17.28L11.71,48.46H29.88L35.5,31.17l5.61,17.29H59.29L44.59,59.14Zm-26.31-24,7.18,5.22-2.74,8.43,7.17-5.21,7.17,5.21-2.74-8.43,7.18-5.22H38.24L35.5,44l-2.74,8.43Z"/><path class="cls-1" d="M53.5,30.39a2.5,2.5,0,0,1-1.12-.27c-16.62-8.3-33.6-.08-33.77,0a2.5,2.5,0,0,1-2.23-4.48c.78-.39,19.34-9.45,38.24,0a2.5,2.5,0,0,1-1.12,4.74Z"/><path class="cls-1" d="M59.5,21.06a2.5,2.5,0,0,1-1.12-.27c-22.55-11.27-45.54-.11-45.77,0a2.5,2.5,0,1,1-2.23-4.47c1-.51,25.41-12.42,50.24,0a2.5,2.5,0,0,1-1.12,4.74Z"/><path class="cls-1" d="M68.5,12.39a2.5,2.5,0,0,1-1.12-.27C35.94-3.6,3.93,12,3.62,12.13A2.5,2.5,0,0,1,1.38,7.65C2.77,7,35.89-9.21,69.62,7.65a2.5,2.5,0,0,1-1.12,4.74Z"/></g></g></svg>