<svg xmlns="http://www.w3.org/2000/svg" viewBox="0 0 419.28 118.1"><defs><style>.cls-1{fill:#1d1760;}.cls-2{fill:#f7901e;}</style></defs><g id="Layer_2" data-name="Layer 2"><g id="Layer_1-2" data-name="Layer 1"><path class="cls-1" d="M9.3,68.09h4.8V41.39H9v6.06H0V33H38.94V47.45h-9V41.39h-5.1v26.7h4.8v7.8H9.3Z"/><path class="cls-1" d="M43.26,68.09h4.8V40.79h-4.8V33H76.32V45.65h-9V41.39H58.8v8.7H71.34v8.4H58.8v9H68V63.23h9V75.89H43.26Z"/><path class="cls-1" d="M104.34,32.27c5.22,0,17.34,1.68,17.34,8.58v6.78h-9.6v-3.3c0-2.4-4.38-3.06-7.26-3.06-7,0-11.82,4.5-11.82,12.48,0,8.88,5.28,13.86,12.42,13.86,1.92,0,7.14-.48,7.14-3.06v-3.3h9.6v6.9c0,6.54-11.58,8.46-17.52,8.46-13.14,0-22.74-9.72-22.74-22.26C81.9,41.51,91.8,32.27,104.34,32.27Z"/><path class="cls-1" d="M127.68,68.09h4.8V40.79h-4.8V33H148v7.8h-4.8v9.6h15.36v-9.6h-4.8V33h20.34v7.8h-4.8v27.3h4.8v7.8H153.78v-7.8h4.8v-9.3H143.22v9.3H148v7.8H127.68Z"/><path class="cls-1" d="M247.74,68.09h4.8V41.39h-5.1v6.06h-9V33h38.94V47.45h-9V41.39h-5.1v26.7h4.8v7.8H247.74Z"/><path class="cls-1" d="M281.7,68.09h4.8V40.79h-4.8V33h33.06V45.65h-9V41.39h-8.52v8.7h12.54v8.4H297.24v9h9.24V63.23h9V75.89H281.7Z"/><path class="cls-1" d="M318.9,68.09h3.54L334.14,33h12.24l11.7,35.1h3.54v7.8H343.68v-7.8h3.72l-1.62-5.7h-11l-1.62,5.7h3.72v7.8H318.9Zm24.54-13.86-2.22-7.92a25.09,25.09,0,0,1-.84-4.5h-.24a25.09,25.09,0,0,1-.84,4.5L337,54.23Z"/><path class="cls-1" d="M364.32,68.09H369l2.28-27.3h-4.8V33h16.86l7.2,21.24a31.15,31.15,0,0,1,1.2,4.44h.12a31.15,31.15,0,0,1,1.2-4.44L400.26,33h16.86v7.8h-4.8l2.28,27.3h4.68v7.8H399.84v-7.8h4.26l-1-15.42a33.88,33.88,0,0,1,.24-4.8h-.24a32.85,32.85,0,0,1-1.14,4.56L396.3,68.09h-9l-5.64-15.66a32.85,32.85,0,0,1-1.14-4.56h-.24a33.88,33.88,0,0,1,.24,4.8l-1,15.42h4.26v7.8H364.32Z"/><path class="cls-2" d="M41.39,117.89,29.88,100.35v17.54H26.09V93h3.47l11.52,17.5V93h3.78v24.92Z"/><path class="cls-2" d="M59.42,118.1a9,9,0,0,1-6.55-2.66c-2.45-2.45-2.42-5.22-2.42-10s0-7.56,2.42-10a9,9,0,0,1,6.55-2.66c4.58,0,8,2.69,8.89,7.66H64.46c-.6-2.52-2.28-4.27-5-4.27a5,5,0,0,0-3.68,1.51c-1.23,1.33-1.51,2.76-1.51,7.77s.28,6.44,1.51,7.77a5.18,5.18,0,0,0,8.75-2.77h3.82C67.47,115.4,63.93,118.1,59.42,118.1Z"/><path class="cls-2" d="M88.36,118.1c-3.75,0-6.44-.88-8.82-3.29l2.52-2.49a8.22,8.22,0,0,0,6.37,2.38c3.25,0,5.14-1.4,5.14-3.81a3.32,3.32,0,0,0-1-2.59,4.3,4.3,0,0,0-2.73-1l-2.94-.42a8.47,8.47,0,0,1-4.72-2,6.17,6.17,0,0,1-1.82-4.76c0-4.34,3.15-7.31,8.33-7.31a10.37,10.37,0,0,1,7.73,2.83L94,98a7.33,7.33,0,0,0-5.43-1.92c-2.94,0-4.55,1.68-4.55,3.88a2.94,2.94,0,0,0,1,2.31,5.59,5.59,0,0,0,2.8,1.16l2.83.42a8.3,8.3,0,0,1,4.66,1.85,6.54,6.54,0,0,1,2,5.11C97.32,115.37,93.57,118.1,88.36,118.1Z"/><path class="cls-2" d="M110.83,96.36v21.53h-3.78V96.36h-6.86V93h17.5v3.39Z"/><path class="cls-2" d="M130.53,118.1c-5.07,0-8.92-3.47-8.92-8.61V93h3.78v16.34c0,3.33,2,5.39,5.14,5.39s5.18-2.06,5.18-5.39V93h3.79v16.52C139.5,114.63,135.61,118.1,130.53,118.1Z"/><path class="cls-2" d="M160.81,115.54a8.89,8.89,0,0,1-6.44,2.35h-8.75V93h8.75a8.92,8.92,0,0,1,6.44,2.34c2.69,2.7,2.52,6.34,2.52,9.94S163.5,112.85,160.81,115.54ZM158.22,98A5.41,5.41,0,0,0,154,96.36H149.4v18.13H154a5.38,5.38,0,0,0,4.24-1.68c1.29-1.43,1.33-4.13,1.33-7.56S159.51,99.48,158.22,98Z"/><path class="cls-2" d="M168.93,117.89V93h15.92v3.39H172.71v7.28h10.36V107H172.71v7.49h12.14v3.4Z"/><path class="cls-2" d="M205.33,117.89l-11.52-17.54v17.54H190V93h3.47L205,110.47V93h3.78v24.92Z"/><path class="cls-2" d="M223.74,96.36v21.53H220V96.36H213.1V93h17.5v3.39Z"/><path class="cls-2" d="M251.35,118.1a9,9,0,0,1-6.54-2.66c-2.45-2.45-2.42-5.22-2.42-10s0-7.56,2.42-10a9,9,0,0,1,6.54-2.66c4.59,0,8,2.69,8.89,7.66h-3.85c-.59-2.52-2.27-4.27-5-4.27a4.94,4.94,0,0,0-3.67,1.51c-1.23,1.33-1.51,2.76-1.51,7.77s.28,6.44,1.51,7.77a5,5,0,0,0,3.67,1.5c2.77,0,4.48-1.75,5.08-4.27h3.81C259.4,115.4,255.87,118.1,251.35,118.1Z"/><path class="cls-2" d="M279.91,115.44a9,9,0,0,1-6.58,2.66,8.92,8.92,0,0,1-6.54-2.66c-2.45-2.45-2.42-5.22-2.42-10s0-7.56,2.42-10a8.88,8.88,0,0,1,6.54-2.66,9,9,0,0,1,6.58,2.66c2.45,2.45,2.38,5.21,2.38,10S282.36,113,279.91,115.44ZM277,97.69a5.24,5.24,0,0,0-7.42,0c-1.22,1.33-1.47,2.73-1.47,7.74s.25,6.4,1.47,7.73a5.24,5.24,0,0,0,7.42,0c1.23-1.33,1.47-2.73,1.47-7.73S278.27,99,277,97.69Z"/><path class="cls-2" d="M303.19,117.89l-11.52-17.54v17.54h-3.78V93h3.47l11.51,17.5V93h3.78v24.92Z"/><path class="cls-2" d="M328.46,117.89l-11.52-17.54v17.54h-3.78V93h3.47l11.51,17.5V93h3.78v24.92Z"/><path class="cls-2" d="M338.43,117.89V93h15.93v3.39H342.21v7.28h10.36V107H342.21v7.49h12.15v3.4Z"/><path class="cls-2" d="M367.59,118.1a9.05,9.05,0,0,1-6.55-2.66c-2.45-2.45-2.42-5.22-2.42-10s0-7.56,2.42-10a9,9,0,0,1,6.55-2.66c4.58,0,8,2.69,8.89,7.66h-3.85c-.6-2.52-2.28-4.27-5-4.27a5,5,0,0,0-3.68,1.51c-1.22,1.33-1.5,2.76-1.5,7.77s.28,6.44,1.5,7.77a5.18,5.18,0,0,0,8.75-2.77h3.82C375.64,115.4,372.1,118.1,367.59,118.1Z"/><path class="cls-2" d="M389.25,96.36v21.53h-3.78V96.36h-6.86V93h17.5v3.39Z"/><path class="cls-2" d="M224.7,76.42,210,65.74,195.29,76.42l5.62-17.28-14.7-10.68h18.17L210,31.17l5.61,17.29h18.18L219.08,59.14Zm-26.31-24,7.17,5.22-2.74,8.43L210,60.85l7.17,5.21-2.74-8.43,7.18-5.22h-8.87L210,44l-2.74,8.43Z"/><path class="cls-2" d="M228,30.39a2.5,2.5,0,0,1-1.12-.27c-16.62-8.3-33.6-.08-33.77,0a2.5,2.5,0,0,1-2.23-4.48c.78-.39,19.33-9.45,38.24,0A2.5,2.5,0,0,1,228,30.39Z"/><path class="cls-2" d="M234,21.06a2.5,2.5,0,0,1-1.12-.27c-22.55-11.27-45.54-.11-45.77,0a2.5,2.5,0,0,1-2.23-4.47c1-.51,25.4-12.42,50.24,0A2.51,2.51,0,0,1,234,21.06Z"/><path class="cls-2" d="M243,12.39a2.5,2.5,0,0,1-1.12-.27c-31.45-15.72-63.45-.15-63.77,0a2.5,2.5,0,0,1-2.23-4.48c1.39-.69,34.51-16.86,68.24,0A2.5,2.5,0,0,1,243,12.39Z"/></g></g></svg>